<svg width="16" height="14" viewBox="0 0 16 14" fill="none" xmlns="http://www.w3.org/2000/svg">
<g clip-path="url(#clip0)">
<path d="M5.43928 10.8664C5.43928 10.9211 5.36864 10.9648 5.27957 10.9648C5.17821 10.973 5.10757 10.9293 5.10757 10.8664C5.10757 10.8117 5.17821 10.768 5.26728 10.768C5.35942 10.7598 5.43928 10.8035 5.43928 10.8664ZM4.48406 10.7434C4.46256 10.798 4.52399 10.8609 4.61613 10.8773C4.69599 10.9047 4.78814 10.8773 4.80656 10.8227C4.82499 10.768 4.76663 10.7051 4.67449 10.6805C4.59463 10.6613 4.50556 10.6887 4.48406 10.7434ZM5.84164 10.6969C5.75257 10.716 5.69114 10.768 5.70036 10.8309C5.70957 10.8855 5.78943 10.9211 5.88157 10.902C5.97064 10.8828 6.03207 10.8309 6.02286 10.7762C6.01364 10.7242 5.93071 10.6887 5.84164 10.6969ZM7.86265 0.21875C3.60256 0.21875 0.34375 3.09805 0.34375 6.89063C0.34375 9.92305 2.48762 12.518 5.54985 13.4313C5.943 13.4941 6.08121 13.2781 6.08121 13.1004C6.08121 12.9309 6.072 11.9957 6.072 11.4215C6.072 11.4215 3.92199 11.8316 3.47048 10.6066C3.47048 10.6066 3.12034 9.81094 2.61662 9.60586C2.61662 9.60586 1.91326 9.17656 2.66576 9.18477C2.66576 9.18477 3.43056 9.23945 3.85134 9.89023C4.52399 10.9457 5.65121 10.6422 6.09043 10.4617C6.16107 10.0242 6.36072 9.7207 6.58186 9.54023C4.86492 9.3707 3.13262 9.14922 3.13262 6.51875C3.13262 5.7668 3.36606 5.38945 3.85749 4.9082C3.77763 4.73047 3.51656 3.99766 3.93734 3.05156C4.57928 2.87383 6.05664 3.78984 6.05664 3.78984C6.67093 3.63672 7.33129 3.55742 7.98551 3.55742C8.63973 3.55742 9.30009 3.63672 9.91438 3.78984C9.91438 3.78984 11.3917 2.87109 12.0337 3.05156C12.4545 4.00039 12.1934 4.73047 12.1135 4.9082C12.605 5.39219 12.906 5.76953 12.906 6.51875C12.906 9.15742 11.0969 9.36797 9.37995 9.54023C9.66252 9.75625 9.9021 10.1664 9.9021 10.809C9.9021 11.7305 9.89288 12.8707 9.89288 13.0949C9.89288 13.2727 10.0342 13.4887 10.4242 13.4258C13.4957 12.518 15.5781 9.92305 15.5781 6.89063C15.5781 3.09805 12.1228 0.21875 7.86265 0.21875ZM3.3292 9.64961C3.28927 9.67695 3.29848 9.73984 3.3507 9.7918C3.39984 9.83555 3.47048 9.85469 3.51041 9.81914C3.55034 9.7918 3.54113 9.72891 3.48891 9.67695C3.43977 9.6332 3.36913 9.61406 3.3292 9.64961ZM2.99748 9.42813C2.97598 9.46367 3.0067 9.50742 3.06812 9.53477C3.11727 9.56211 3.1787 9.55391 3.2002 9.51563C3.2217 9.48008 3.19098 9.43633 3.12955 9.40899C3.06812 9.39258 3.01898 9.40078 2.99748 9.42813ZM3.99263 10.4016C3.94349 10.4371 3.96192 10.5191 4.03256 10.5711C4.1032 10.634 4.19227 10.6422 4.2322 10.5984C4.27213 10.5629 4.2537 10.4809 4.19227 10.4289C4.1247 10.366 4.03256 10.3578 3.99263 10.4016ZM3.64249 9.99961C3.59334 10.027 3.59334 10.098 3.64249 10.1609C3.69163 10.2238 3.77456 10.2512 3.81449 10.2238C3.86363 10.1883 3.86363 10.1172 3.81449 10.0543C3.77149 9.99141 3.69163 9.96406 3.64249 9.99961Z" fill="#BDBDBD"/>
</g>
<defs>
<clipPath id="clip0">
<rect width="15.2344" height="14" fill="white" transform="translate(0.34375)"/>
</clipPath>
</defs>
</svg>
