<svg width="17" height="14" viewBox="0 0 17 14" fill="none" xmlns="http://www.w3.org/2000/svg">
<g clip-path="url(#clip0)">
<path d="M8.2072 3.85547C5.8781 3.85547 3.99944 5.2582 3.99944 6.99727C3.99944 8.73633 5.8781 10.1391 8.2072 10.1391C10.5363 10.1391 12.415 8.73633 12.415 6.99727C12.415 5.2582 10.5363 3.85547 8.2072 3.85547ZM8.2072 9.03985C6.70207 9.03985 5.47161 8.12383 5.47161 6.99727C5.47161 5.8707 6.69841 4.95469 8.2072 4.95469C9.71598 4.95469 10.9428 5.8707 10.9428 6.99727C10.9428 8.12383 9.71232 9.03985 8.2072 9.03985ZM13.5685 3.72695C13.5685 4.13437 13.1291 4.45976 12.5871 4.45976C12.0414 4.45976 11.6056 4.13164 11.6056 3.72695C11.6056 3.32226 12.0451 2.99414 12.5871 2.99414C13.1291 2.99414 13.5685 3.32226 13.5685 3.72695ZM16.3554 4.4707C16.2931 3.48906 15.9928 2.61953 15.0297 1.90312C14.0702 1.18671 12.9057 0.962494 11.591 0.913275C10.236 0.855853 6.17473 0.855853 4.81975 0.913275C3.50872 0.95976 2.34417 1.18398 1.38104 1.90039C0.417907 2.61679 0.121277 3.48633 0.0553588 4.46797C-0.0215454 5.47969 -0.0215454 8.51211 0.0553588 9.52383C0.117614 10.5055 0.417907 11.375 1.38104 12.0914C2.34417 12.8078 3.50506 13.032 4.81975 13.0813C6.17473 13.1387 10.236 13.1387 11.591 13.0813C12.9057 13.0348 14.0702 12.8106 15.0297 12.0914C15.9892 11.375 16.2895 10.5055 16.3554 9.52383C16.4323 8.51211 16.4323 5.48242 16.3554 4.4707ZM14.6049 10.6094C14.3192 11.1453 13.7663 11.5582 13.0448 11.7742C11.9645 12.0941 9.40104 12.0203 8.2072 12.0203C7.01335 12.0203 4.44622 12.0914 3.36956 11.7742C2.65179 11.5609 2.09881 11.1481 1.80951 10.6094C1.38104 9.80274 1.47992 7.88867 1.47992 6.99727C1.47992 6.10586 1.3847 4.18906 1.80951 3.38515C2.09515 2.84922 2.64813 2.43632 3.36956 2.22031C4.44988 1.90039 7.01335 1.97421 8.2072 1.97421C9.40104 1.97421 11.9682 1.90312 13.0448 2.22031C13.7626 2.43359 14.3156 2.84648 14.6049 3.38515C15.0334 4.19179 14.9345 6.10586 14.9345 6.99727C14.9345 7.88867 15.0334 9.80547 14.6049 10.6094Z" fill="#BDBDBD"/>
</g>
<defs>
<clipPath id="clip0">
<rect width="16.4062" height="14" fill="white"/>
</clipPath>
</defs>
</svg>
