<svg width="18" height="14" viewBox="0 0 18 14" fill="none" xmlns="http://www.w3.org/2000/svg">
<g clip-path="url(#clip0)">
<path d="M4.45434 12.25H1.05225V4.07148H4.45434V12.25ZM2.75146 2.95586C1.66382 2.95586 0.78125 2.2832 0.78125 1.47109C0.78125 0.658984 1.66382 0 2.75146 0C3.8391 0 4.72167 0.658984 4.72167 1.47109C4.72167 2.2832 3.8391 2.95586 2.75146 2.95586ZM17.1875 12.25H13.7927V8.26875C13.7927 7.31992 13.7671 6.10313 12.0239 6.10313C10.2551 6.10313 9.98411 7.13398 9.98411 8.20039V12.25H6.58568V4.07148H9.84861V5.18711H9.89622C10.3503 4.54453 11.4599 3.86641 13.1152 3.86641C16.5576 3.86641 17.1911 5.55898 17.1911 7.75742V12.25H17.1875Z" fill="#BDBDBD"/>
</g>
<defs>
<clipPath id="clip0">
<rect width="16.4062" height="14" fill="white" transform="translate(0.78125)"/>
</clipPath>
</defs>
</svg>
