<svg width="40" height="40" viewBox="0 0 40 40" fill="none" xmlns="http://www.w3.org/2000/svg">
<g clip-path="url(#clip0)">
<circle cx="19.6825" cy="20.3175" r="19.0476" fill="url(#paint0_radial)"/>
<path fill-rule="evenodd" clip-rule="evenodd" d="M35.0785 29.2063C39.9877 20.7034 37.0744 9.83065 28.5714 4.92145C20.0684 0.0122562 9.19571 2.92559 4.28651 11.4286C-0.622683 19.9316 2.29065 30.8043 10.7936 35.7135C19.2966 40.6227 30.1693 37.7093 35.0785 29.2063ZM10.8848 9.52381C6.48594 9.52381 3.73665 14.2857 5.93608 18.0952L14.7338 33.3333C16.9332 37.1429 22.4318 37.1429 24.6312 33.3333L33.429 18.0952C35.6284 14.2857 32.8791 9.52381 28.4802 9.52381L10.8848 9.52381Z" fill="#F2F2F2"/>
<g filter="url(#filter0_dd)">
<path d="M30.2122 9.52386C33.8413 9.52386 36.1094 13.4524 34.2949 16.5953L23.7651 34.8334C21.9506 37.9762 17.4143 37.9762 15.5998 34.8334L5.06999 16.5953C3.25547 13.4524 5.52363 9.52386 9.15268 9.52386L30.2122 9.52386Z" fill="#25272E"/>
</g>
<path d="M14.4536 21.8546C14.3716 21.8574 14.2766 21.8005 14.1685 21.6839C14.0605 21.5672 14.0043 21.4488 14.0001 21.3285C13.9957 21.2027 14.1253 20.6044 14.389 19.5333C14.6526 18.4622 14.7967 17.6498 14.8211 17.0961C14.7485 17.0549 14.6833 16.9887 14.6254 16.8977C14.5674 16.8067 14.5373 16.7256 14.5348 16.6545C14.5304 16.5288 14.7118 16.3938 15.0789 16.2496C15.4459 16.1 15.8536 16.0174 16.3019 16.0017C16.7556 15.9858 17.1503 16.0815 17.486 16.2887C17.8269 16.4903 18.0042 16.7879 18.0179 17.1815C18.0273 17.4494 17.9596 17.7036 17.8147 17.944C17.6751 18.1788 17.4985 18.3737 17.285 18.529C17.077 18.684 16.8683 18.8227 16.6591 18.9449C16.4499 19.0672 16.2701 19.1693 16.1197 19.2512C15.9746 19.3274 15.9026 19.3819 15.9038 19.4147C15.908 19.535 16.0064 19.6875 16.1989 19.8724C16.3969 20.057 16.5354 20.1836 16.6145 20.2519C16.6935 20.3204 16.798 20.4125 16.9279 20.5284C17.0576 20.6388 17.1788 20.7386 17.2914 20.8277C17.4094 20.9166 17.5023 20.99 17.57 21.0478C17.6432 21.1055 17.7165 21.1659 17.7898 21.229C17.9309 21.35 18.0028 21.4487 18.0054 21.5253C18.01 21.6565 17.9221 21.7252 17.7417 21.7315C17.4137 21.743 16.9363 21.475 16.3097 20.9277C15.6828 20.3748 15.294 19.9012 15.1434 19.5069C14.9163 20.3687 14.7859 20.8687 14.7524 21.0067C14.7188 21.1392 14.6798 21.2774 14.6355 21.4213C14.558 21.7086 14.4974 21.853 14.4536 21.8546ZM15.5341 17.2929C15.5465 17.6482 15.4522 18.24 15.2513 19.068C15.3417 18.9937 15.5157 18.8836 15.7734 18.7378C16.0308 18.5865 16.2614 18.4498 16.4652 18.3277C16.6742 18.2 16.8627 18.0347 17.0308 17.8318C17.1989 17.6289 17.2792 17.4208 17.2717 17.2076C17.2599 16.8686 16.9588 16.7095 16.3683 16.7301C16.1004 16.7394 15.7912 16.8187 15.4406 16.9677C15.4995 17.0861 15.5307 17.1945 15.5341 17.2929Z" fill="white"/>
<path d="M22.7822 17.4524C22.7822 18.0431 22.4978 18.5437 21.9289 18.9539C21.3654 19.3642 20.6187 19.6596 19.6888 19.8401C19.2895 21.1913 19.0515 21.8669 18.9749 21.8669C18.8983 21.8669 18.8081 21.8067 18.7041 21.6863C18.6002 21.5605 18.5482 21.4374 18.5482 21.3171C18.5482 21.1913 18.6276 20.8631 18.7862 20.3324C19.2785 18.6968 19.5356 17.5563 19.5575 16.9108C19.4262 16.7905 19.3606 16.681 19.3606 16.5826C19.3606 16.4458 19.5466 16.3145 19.9185 16.1887C20.2905 16.0629 20.6461 16 20.9852 16C21.5104 16 21.9398 16.134 22.2735 16.4021C22.6126 16.6701 22.7822 17.0202 22.7822 17.4524ZM22.0601 17.5016C22.0601 17.2609 21.9672 17.064 21.7812 16.9108C21.6006 16.7522 21.3818 16.6728 21.1247 16.6728C20.8676 16.6728 20.5558 16.7549 20.1893 16.919C20.244 17.0393 20.2714 17.1515 20.2714 17.2554C20.2714 17.5618 20.1373 18.21 19.8693 19.2001C20.5257 19.0251 21.0536 18.7844 21.4529 18.478C21.8577 18.1662 22.0601 17.8407 22.0601 17.5016Z" fill="#6FCF97"/>
<path d="M26.0686 20.1437C26.0686 20.5923 25.8662 20.9697 25.4614 21.2761C25.0566 21.5769 24.5916 21.7274 24.0665 21.7274C23.5468 21.7274 23.1174 21.5933 22.7782 21.3253C22.4391 21.0518 22.2695 20.7947 22.2695 20.554C22.2695 20.3899 22.3187 20.3078 22.4172 20.3078C22.5047 20.3078 22.677 20.4391 22.9341 20.7017C23.0326 20.7947 23.1639 20.8822 23.328 20.9643C23.4976 21.0463 23.6754 21.0873 23.8614 21.0873C24.2443 21.0873 24.5834 20.9889 24.8788 20.7919C25.1797 20.595 25.3301 20.3817 25.3301 20.1519C25.3301 20.0042 25.2317 19.8155 25.0347 19.5858C24.8378 19.356 24.619 19.1399 24.3783 18.9375C24.1431 18.7297 23.927 18.5081 23.7301 18.2729C23.5331 18.0377 23.4347 17.8517 23.4347 17.7149C23.4347 17.5782 23.462 17.4332 23.5167 17.28C23.5714 17.1269 23.6316 17.0147 23.6972 16.9436C23.9106 16.7084 24.2415 16.4923 24.6901 16.2954C25.1441 16.0985 25.5243 16 25.8306 16C25.9893 16 26.1233 16.052 26.2327 16.1559C26.3421 16.2598 26.3968 16.3692 26.3968 16.4841C26.3968 16.5388 26.3394 16.5826 26.2245 16.6154C26.1096 16.6482 25.9346 16.692 25.6994 16.7467C25.4696 16.7959 25.2645 16.8561 25.084 16.9272C24.4549 17.1679 24.1403 17.4004 24.1403 17.6247C24.1403 17.745 24.4603 18.0814 25.1004 18.6339C25.3465 18.8473 25.5681 19.0962 25.765 19.3806C25.9674 19.6596 26.0686 19.914 26.0686 20.1437Z" fill="#E25840"/>
</g>
<defs>
<filter id="filter0_dd" x="0.0902858" y="-3.94588" width="44.4492" height="46.5347" filterUnits="userSpaceOnUse" color-interpolation-filters="sRGB">
<feFlood flood-opacity="0" result="BackgroundImageFix"/>
<feColorMatrix in="SourceAlpha" type="matrix" values="0 0 0 0 0 0 0 0 0 0 0 0 0 0 0 0 0 0 127 0"/>
<feOffset dy="1.04762"/>
<feGaussianBlur stdDeviation="1.30952"/>
<feColorMatrix type="matrix" values="0 0 0 0 0 0 0 0 0 0 0 0 0 0 0 0 0 0 0.4 0"/>
<feBlend mode="normal" in2="BackgroundImageFix" result="effect1_dropShadow"/>
<feColorMatrix in="SourceAlpha" type="matrix" values="0 0 0 0 0 0 0 0 0 0 0 0 0 0 0 0 0 0 127 0"/>
<feOffset dy="-0.52381"/>
<feGaussianBlur stdDeviation="1.04762"/>
<feColorMatrix type="matrix" values="0 0 0 0 0 0 0 0 0 0 0 0 0 0 0 0 0 0 0.3 0"/>
<feBlend mode="normal" in2="effect1_dropShadow" result="effect2_dropShadow"/>
<feBlend mode="normal" in="SourceGraphic" in2="effect2_dropShadow" result="shape"/>
</filter>
<radialGradient id="paint0_radial" cx="0" cy="0" r="1" gradientUnits="userSpaceOnUse" gradientTransform="translate(19.6825 20.3175) rotate(90) scale(19.0476)">
<stop offset="0.833333" stop-color="#F2F2F2" stop-opacity="0"/>
<stop offset="1" stop-color="#F2F2F2"/>
</radialGradient>
<clipPath id="clip0">
<rect width="40" height="40" fill="white"/>
</clipPath>
</defs>
</svg>
