<svg width="17" height="14" viewBox="0 0 17 14" fill="none" xmlns="http://www.w3.org/2000/svg">
<g clip-path="url(#clip0)">
<path d="M15.2823 4.14847C15.2927 4.27283 15.2927 4.39722 15.2927 4.52158C15.2927 8.3147 11.9095 12.6853 5.72589 12.6853C3.82084 12.6853 2.05114 12.2144 0.5625 11.3972C0.833171 11.4238 1.0934 11.4327 1.37448 11.4327C2.94637 11.4327 4.39339 10.9797 5.54891 10.2069C4.07068 10.1802 2.83188 9.35406 2.40506 8.217C2.61328 8.24363 2.82147 8.26141 3.0401 8.26141C3.34198 8.26141 3.6439 8.22586 3.92495 8.16371C2.38427 7.89719 1.22872 6.74238 1.22872 5.34771V5.31219C1.67633 5.52539 2.19688 5.65864 2.74857 5.67638C1.84289 5.16115 1.24954 4.28172 1.24954 3.28679C1.24954 2.7538 1.41607 2.26522 1.70757 1.83883C3.36278 3.57994 5.85079 4.71697 8.64066 4.84136C8.58862 4.62816 8.55738 4.4061 8.55738 4.18402C8.55738 2.60278 10.0564 1.31473 11.9198 1.31473C12.888 1.31473 13.7624 1.66117 14.3766 2.22082C15.1365 2.09646 15.8652 1.8566 16.5107 1.52793C16.2608 2.19418 15.7299 2.75383 15.0324 3.10913C15.7091 3.04698 16.3649 2.88705 16.9687 2.66499C16.5107 3.23349 15.9381 3.73982 15.2823 4.14847Z" fill="#BDBDBD"/>
</g>
<defs>
<clipPath id="clip0">
<rect width="16.4062" height="14" fill="white" transform="translate(0.5625)"/>
</clipPath>
</defs>
</svg>
